<svg width="56" height="56" viewBox="0 0 56 56" fill="none" xmlns="http://www.w3.org/2000/svg">
<path d="M28 56C43.464 56 56 43.464 56 28C56 12.536 43.464 0 28 0C12.536 0 0 12.536 0 28C0 43.464 12.536 56 28 56Z" fill="#09B850" fill-opacity="0.15"/>
<path d="M28 48C39.0457 48 48 39.0457 48 28C48 16.9543 39.0457 8 28 8C16.9543 8 8 16.9543 8 28C8 39.0457 16.9543 48 28 48Z" stroke="#09B850" stroke-width="2.5"/>
<path d="M21 30L27 36L37 24" stroke="#09B850" stroke-width="2.5" stroke-linecap="round" stroke-linejoin="round"/>
</svg>
